<svg width="28" height="25" viewBox="0 0 28 25" fill="none" xmlns="http://www.w3.org/2000/svg">
<path d="M26.5 9.25H20.5125L15.0375 1.05C14.9227 0.879739 14.7676 0.740479 14.586 0.644603C14.4045 0.548726 14.202 0.499205 13.9967 0.500442C13.7913 0.501679 13.5895 0.553636 13.409 0.651693C13.2286 0.74975 13.0752 0.890869 12.9625 1.0625L7.4875 9.25H1.5C0.8125 9.25 0.25 9.8125 0.25 10.5C0.25 10.6125 0.25 10.725 0.3 10.8375L3.475 22.425C3.7625 23.475 4.725 24.25 5.875 24.25H22.125C23.275 24.25 24.2375 23.475 24.5375 22.425L27.7125 10.8375L27.75 10.5C27.75 9.8125 27.1875 9.25 26.5 9.25ZM14 4L17.5 9.25H10.5L14 4ZM22.125 21.75H5.875L3.1375 11.75H24.875L22.125 21.75ZM14 14.25C12.625 14.25 11.5 15.375 11.5 16.75C11.5 18.125 12.625 19.25 14 19.25C15.375 19.25 16.5 18.125 16.5 16.75C16.5 15.375 15.375 14.25 14 14.25Z" fill="white"/>
</svg>
