<svg width="10" height="13" viewBox="0 0 10 13" fill="none" xmlns="http://www.w3.org/2000/svg">
<path fill-rule="evenodd" clip-rule="evenodd" d="M5.11446 11.9993L5.54716 11.5118C6.03815 10.9494 6.47977 10.4159 6.8727 9.90848L7.19706 9.48058C8.5514 7.65582 9.22891 6.20753 9.22891 5.13709C9.22891 2.85219 7.38701 1 5.11446 1C2.84191 1 1 2.85219 1 5.13709C1 6.20753 1.67751 7.65582 3.03186 9.48058L3.35621 9.90848C3.91676 10.6267 4.50323 11.3237 5.11446 11.9993Z" stroke="#6F7272" stroke-linecap="round" stroke-linejoin="round"/>
<path d="M5.11445 6.82881C6.06126 6.82881 6.82881 6.06127 6.82881 5.11446C6.82881 4.16764 6.06126 3.4001 5.11445 3.4001C4.16764 3.4001 3.40009 4.16764 3.40009 5.11446C3.40009 6.06127 4.16764 6.82881 5.11445 6.82881Z" fill="#6F7272"/>
</svg>
