<svg width="28" height="28" viewBox="0 0 28 28" fill="none" xmlns="http://www.w3.org/2000/svg">
<path fill-rule="evenodd" clip-rule="evenodd" d="M19.0909 10.1818C19.0909 11.532 18.5545 12.8269 17.5998 13.7816C16.6451 14.7364 15.3502 15.2727 14 15.2727C12.6498 15.2727 11.3549 14.7364 10.4002 13.7816C9.44542 12.8269 8.90906 11.532 8.90906 10.1818C8.90906 8.83163 9.44542 7.53674 10.4002 6.582C11.3549 5.62727 12.6498 5.09091 14 5.09091C15.3502 5.09091 16.6451 5.62727 17.5998 6.582C18.5545 7.53674 19.0909 8.83163 19.0909 10.1818ZM16.5454 10.1818C16.5454 10.8569 16.2772 11.5044 15.7999 11.9817C15.3225 12.4591 14.6751 12.7273 14 12.7273C13.3249 12.7273 12.6774 12.4591 12.2001 11.9817C11.7227 11.5044 11.4545 10.8569 11.4545 10.1818C11.4545 9.50672 11.7227 8.85928 12.2001 8.38191C12.6774 7.90455 13.3249 7.63637 14 7.63637C14.6751 7.63637 15.3225 7.90455 15.7999 8.38191C16.2772 8.85928 16.5454 9.50672 16.5454 10.1818Z" fill="white"/>
<path fill-rule="evenodd" clip-rule="evenodd" d="M14 0C6.26818 0 0 6.26818 0 14C0 21.7318 6.26818 28 14 28C21.7318 28 28 21.7318 28 14C28 6.26818 21.7318 0 14 0ZM2.54545 14C2.54545 16.66 3.45291 19.1087 4.97382 21.0535C6.04193 19.6508 7.41987 18.514 9.00001 17.732C10.5801 16.95 12.3197 16.5439 14.0827 16.5455C15.823 16.5438 17.5406 16.9394 19.1048 17.7021C20.669 18.4648 22.0385 19.5744 23.1089 20.9465C24.2117 19.5002 24.9542 17.8121 25.275 16.0218C25.5958 14.2316 25.4856 12.3907 24.9537 10.6514C24.4218 8.91219 23.4834 7.32461 22.2161 6.02005C20.9488 4.71549 19.389 3.73146 17.6659 3.14937C15.9428 2.56729 14.1059 2.40389 12.3071 2.67269C10.5083 2.94149 8.79937 3.63477 7.32171 4.69516C5.84404 5.75555 4.64012 7.15256 3.80956 8.77061C2.97901 10.3887 2.54568 12.1812 2.54545 14ZM14 25.4545C11.3705 25.4585 8.82034 24.5539 6.78109 22.8938C7.60191 21.7188 8.69443 20.7594 9.9657 20.0972C11.237 19.4351 12.6494 19.0899 14.0827 19.0909C15.4982 19.0898 16.8935 19.4264 18.1528 20.0727C19.4121 20.7191 20.499 21.6565 21.3233 22.8073C19.2682 24.5213 16.676 25.4583 14 25.4545Z" fill="white"/>
</svg>
