<svg width="113" height="143" viewBox="0 0 113 143" fill="none" xmlns="http://www.w3.org/2000/svg">
<g clip-path="url(#clip0_16_58)">
<path d="M119.906 79.5843C119.906 59.665 119.906 39.6992 119.906 19.7799C119.953 18.3803 119.707 16.9863 119.184 15.6855C118.662 14.3847 117.873 13.2053 116.869 12.2216C115.864 11.238 114.665 10.471 113.347 9.9696C112.029 9.4682 110.621 9.24329 109.21 9.3083C97.4357 9.3083 85.7545 9.3083 73.8389 9.3083C73.2811 9.40888 72.7058 9.29666 72.2275 8.9947C71.7492 8.69274 71.403 8.22281 71.2586 7.67893C70.3836 5.3757 68.8163 3.3953 66.769 2.0051C64.7216 0.614909 62.2933 -0.117548 59.8124 -0.0929679C57.3355 -0.0978323 54.9161 0.648568 52.8787 2.04601C50.8413 3.44345 49.2829 5.42485 48.4126 7.72552C48.2995 8.24614 47.9865 8.70269 47.5399 8.99811C47.0932 9.29353 46.548 9.40498 46.0201 9.3083H10.0862C8.72722 9.18904 7.358 9.36481 6.07473 9.82416C4.79146 10.2835 3.62512 11.0151 2.656 11.9677C1.68688 12.9203 0.938763 14.0712 0.46389 15.34C-0.0109827 16.6089 -0.201498 17.9648 -0.0938726 19.3141V139.947C-0.201498 141.296 -0.0109827 142.653 0.46389 143.922C0.938763 145.191 1.68688 146.341 2.656 147.294C3.62512 148.246 4.79146 148.978 6.07473 149.437C7.358 149.896 8.72722 150.073 10.0862 149.954H109.539C110.931 150.094 112.337 149.923 113.654 149.455C114.972 148.986 116.166 148.231 117.151 147.245C118.136 146.259 118.887 145.066 119.347 143.755C119.807 142.444 119.967 141.048 119.813 139.668L119.906 79.5843ZM6.37996 79.5843V19.4538C6.37996 16.6614 7.2711 15.5911 9.7105 15.5446H33.1663C34.2922 15.5446 34.5739 15.9631 34.5269 16.987C34.5269 19.4537 34.5269 21.6414 34.5269 24.2942C34.5269 26.947 35.7469 28.0637 38.3271 28.0637H81.2977C81.815 28.1429 82.3441 28.1001 82.8416 27.9387C83.3391 27.7773 83.7909 27.502 84.161 27.1348C84.5311 26.7676 84.8091 26.3188 84.9719 25.8253C85.1346 25.3318 85.1777 24.8074 85.0978 24.2942C85.0978 22.0603 85.0978 19.6403 85.0978 17.4995C85.0978 16.0567 85.098 15.5446 86.9744 15.5446C94.3865 15.5446 101.798 15.5446 109.164 15.5446C112.588 15.5446 113.386 16.3825 113.386 19.7799V139.435C113.386 143.019 112.635 143.764 108.929 143.764H10.696C7.03693 143.764 6.00487 143.019 6.00487 139.435L6.37996 79.5843ZM59.9063 21.7808H45.8328C41.1416 21.7808 41.1416 21.7808 41.1416 17.1268C41.1416 15.8702 41.6106 15.5912 42.7834 15.5912C45.2228 15.5912 47.4743 15.5912 50.1483 15.5912C50.6195 15.6533 51.0993 15.6119 51.5525 15.4696C52.0056 15.3272 52.4212 15.0873 52.7705 14.7674C53.1198 14.4475 53.3941 14.0554 53.5733 13.6186C53.7526 13.1818 53.8324 12.7113 53.8076 12.2404C53.8446 10.8863 54.322 9.58004 55.1682 8.51691C55.9537 7.53834 57.0197 6.81905 58.2256 6.45349C59.4315 6.08794 60.7205 6.09353 61.9232 6.4694C63.2019 6.75179 64.3529 7.44132 65.1999 8.43283C66.0469 9.42434 66.5433 10.6631 66.6143 11.9609C66.9427 14.7067 67.8809 15.5446 70.6956 15.5912H74.7305C79.4217 15.5912 79.4217 15.5912 79.4217 20.2452C79.4217 21.6414 78.9995 22.0138 77.639 22.0138L59.9063 21.7808Z" fill="white"/>
<path d="M94.7611 115.606C94.6631 114.643 94.213 113.749 93.495 113.093C91.5247 111.138 89.5543 109.091 87.5371 107.182C86.6927 106.391 86.7865 105.973 87.5371 105.275C89.6012 103.32 91.5711 101.365 93.5414 99.3639C93.897 99.0962 94.19 98.7551 94.4004 98.3646C94.6107 97.974 94.7338 97.5431 94.7606 97.1011C94.7873 96.659 94.7173 96.2162 94.5555 95.8035C94.3937 95.3907 94.1439 95.0178 93.8231 94.7098C93.1528 94.1539 92.2935 93.8734 91.4214 93.9253C90.5493 93.9772 89.7304 94.3574 89.132 94.9888C87.2086 96.897 85.2385 98.7125 83.4558 100.714C82.4238 101.831 81.8607 101.551 80.9694 100.714C79.0929 98.7125 77.1227 96.8043 75.1524 94.8962C74.6879 94.3924 74.0732 94.0484 73.3983 93.9145C72.7235 93.7806 72.0233 93.8636 71.3992 94.1514C70.8473 94.3592 70.3721 94.7288 70.0369 95.2109C69.7017 95.6931 69.5223 96.2648 69.5226 96.8505C69.5024 97.3452 69.5981 97.838 69.8015 98.2901C70.005 98.7423 70.3106 99.1417 70.6954 99.4571C72.6657 101.412 74.6361 103.46 76.6533 105.368C77.4508 106.112 77.5915 106.624 76.6533 107.462C74.6361 109.324 72.7127 111.278 70.7893 113.233C70.4493 113.51 70.17 113.853 69.9682 114.241C69.7663 114.629 69.6461 115.054 69.6154 115.49C69.5847 115.926 69.6441 116.363 69.7895 116.775C69.9349 117.187 70.1634 117.565 70.4612 117.887C70.8029 118.206 71.2077 118.451 71.65 118.606C72.0924 118.761 72.5623 118.823 73.0301 118.788C73.498 118.753 73.9534 118.622 74.3673 118.403C74.7811 118.184 75.144 117.881 75.4335 117.515C77.2631 115.746 79.1866 113.978 80.8755 112.069C82.5643 110.161 82.611 111.045 83.5961 112.069C85.4257 114.071 87.3495 115.886 89.2728 117.794C89.743 118.29 90.3597 118.625 91.0343 118.75C91.7089 118.876 92.4061 118.785 93.0254 118.492C93.5551 118.217 93.9978 117.802 94.3041 117.293C94.6105 116.783 94.7686 116.2 94.7611 115.606Z" fill="white"/>
<path d="M72.1973 62.4106C71.6359 62.4543 71.0973 62.6519 70.6419 62.9805C70.1865 63.3091 69.8317 63.756 69.6169 64.2724C69.32 64.7788 69.2004 65.3685 69.2767 65.9495C69.3531 66.5304 69.6216 67.0701 70.0395 67.484C73.2764 70.7883 76.5132 74.0926 79.8908 77.2574C80.248 77.6109 80.6855 77.8739 81.1667 78.0243C81.6479 78.1747 82.1587 78.2082 82.6556 78.1215C83.1525 78.0347 83.6208 77.8304 84.0214 77.5261C84.422 77.2218 84.743 76.8261 84.9571 76.3728L97.0137 58.4082C98.4211 56.3604 98.327 54.685 96.732 53.7542C96.3273 53.4789 95.8672 53.2943 95.3834 53.2133C94.8995 53.1324 94.4038 53.157 93.9305 53.2855C93.4573 53.4139 93.0176 53.6435 92.6426 53.9576C92.2677 54.2716 91.9661 54.6627 91.759 55.104C88.7098 59.7581 85.6609 64.0399 82.7054 68.5543C81.8141 69.9505 81.2509 70.1364 80.125 68.8333C78.9992 67.5301 76.7476 65.436 75.0118 63.7605C74.6898 63.3242 74.2645 62.9732 73.7738 62.7379C73.283 62.5026 72.7419 62.3899 72.1973 62.4106Z" fill="white"/>
<path d="M40.9539 68.7406H56.2472C58.5458 68.7406 59.9065 67.577 59.9534 65.7154C60.0003 63.8537 58.5928 62.5038 56.2472 62.5038H25.2386C24.7857 62.4437 24.3249 62.4809 23.8877 62.6128C23.4506 62.7448 23.0472 62.9684 22.7046 63.2685C22.3621 63.5685 22.0884 63.9384 21.9024 64.3524C21.7163 64.7665 21.6223 65.2154 21.6263 65.6688C21.6263 67.5304 23.0807 68.7401 25.2856 68.7866L40.9539 68.7406Z" fill="white"/>
<path d="M40.766 103.18H25.2855C22.9868 103.18 21.6262 104.344 21.6262 106.205C21.6262 108.067 23.0337 109.324 25.2855 109.324H57.0917C57.5032 109.307 57.907 109.206 58.2777 109.028C58.6484 108.85 58.9782 108.599 59.2466 108.289C59.515 107.979 59.716 107.617 59.8376 107.227C59.9592 106.836 59.9986 106.425 59.9532 106.019C59.9356 105.625 59.8382 105.24 59.6669 104.884C59.4956 104.529 59.2534 104.212 58.9557 103.951C58.6579 103.69 58.3108 103.492 57.9341 103.368C57.5573 103.243 57.1588 103.195 56.763 103.227L40.766 103.18Z" fill="white"/>
</g>
<defs>
<clipPath id="clip0_16_58">
<rect width="120" height="150" fill="white"/>
</clipPath>
</defs>
</svg>
